<?xml version="1.0" encoding="UTF-8" standalone="no"?>
<svg
   xmlns:dc="http://purl.org/dc/elements/1.1/"
   xmlns:cc="http://creativecommons.org/ns#"
   xmlns:rdf="http://www.w3.org/1999/02/22-rdf-syntax-ns#"
   xmlns:svg="http://www.w3.org/2000/svg"
   xmlns="http://www.w3.org/2000/svg"
   xmlns:sodipodi="http://sodipodi.sourceforge.net/DTD/sodipodi-0.dtd"
   xmlns:inkscape="http://www.inkscape.org/namespaces/inkscape"
   id="Layer_1"
   data-name="Layer 1"
   viewBox="0 0 130 118.1"
   version="1.1"
   sodipodi:docname="edf.svg"
   inkscape:version="1.0.1 (3bc2e813f5, 2020-09-07)">
  <metadata
     id="metadata17">
    <rdf:RDF>
      <cc:Work
         rdf:about="">
        <dc:format>image/svg+xml</dc:format>
        <dc:type
           rdf:resource="http://purl.org/dc/dcmitype/StillImage" />
      </cc:Work>
    </rdf:RDF>
  </metadata>
  <sodipodi:namedview
     pagecolor="#ffffff"
     bordercolor="#666666"
     borderopacity="1"
     objecttolerance="10"
     gridtolerance="10"
     guidetolerance="10"
     inkscape:pageopacity="0"
     inkscape:pageshadow="2"
     inkscape:window-width="1350"
     inkscape:window-height="965"
     id="namedview15"
     showgrid="false"
     inkscape:zoom="6.2235395"
     inkscape:cx="65"
     inkscape:cy="59.049999"
     inkscape:window-x="378"
     inkscape:window-y="67"
     inkscape:window-maximized="0"
     inkscape:current-layer="Layer_1" />
  <defs
     id="defs4">
    <style
       id="style2">.cls-1{fill:#4285f4}.cls-3{fill:#fff}</style>
  </defs>
  <path
     class="cls-1"
     d="M127.46 53.15l-26.3-45.74a11.56 11.56 0 0 0-9.86-5.88H38.69a11.59 11.59 0 0 0-9.86 5.88L2.52 53a11.51 11.51 0 0 0 0 11.44l26.3 46a11.79 11.79 0 0 0 9.86 6.09h52.61a11.71 11.71 0 0 0 9.87-6.06l26.3-45.74a11.73 11.73 0 0 0 0-11.58z"
     id="path6" />
  <path
     class="cls-1"
     d="M91.41 41.77H89.3l-5.83-5.86-43.83 11.15 5.67 4.71-5.67 5.29L45 61.77l-5.39 5.29 6 4.71-6 5.29L79 116.56h12.29a11.71 11.71 0 0 0 9.87-6.06l21.24-36.93h-.07z"
     id="path8" />
  <path
     d="M80.25 35.92l-32.5 5.33 1.53 2.82-8 5 2.82 4.84h-6v23.41L79 116.56h12.29a11.71 11.71 0 0 0 9.87-6.06l19.71-34.26z"
     fill="#407add"
     id="path10"
     style="fill:#c9177e;fill-opacity:1" />
  <path
     class="cls-3"
     d="M82.25 41.24h-34.5l2-5.32h30.5l2 5.32zM88.72 49.1H41.28l2-5.03h43.44l2 5.03zM75.73 53.94l-1.77 3.31H56.04l-1.77-3.31H38.1v23.38h53.8V53.94H75.73z"
     id="path12" />
  <path
     style="fill:#ff4088;stroke-width:0;fill-opacity:1;stroke:none;stroke-miterlimit:4;stroke-dasharray:none"
     d="m 37.121973,116.25258 c -2.508097,-0.47188 -4.357602,-1.45533 -6.186884,-3.28979 L 29.568612,111.59245 15.843298,87.570747 C 7.5942219,73.133421 1.9677664,63.119455 1.7414874,62.472343 0.86183137,59.956707 0.8941513,57.117411 1.8296392,54.728232 2.2208281,53.729159 28.010134,8.8120859 29.439277,6.640697 30.710933,4.7085889 33.078078,2.957981 35.568733,2.107695 l 1.23188,-0.4205522 H 64.91966 93.038707 l 1.205102,0.3762912 c 2.099773,0.6556506 3.309387,1.3954659 4.900748,2.9973587 l 1.446123,1.4556925 13.59835,23.6958728 c 8.41174,14.657898 13.75419,24.130706 14.00693,24.835923 1.07732,3.006108 0.88505,6.278712 -0.53294,9.070875 -0.1998,0.393434 -1.46173,2.631445 -2.80428,4.97336 -1.34254,2.341915 -2.79312,4.893312 -3.2235,5.669769 l -0.7825,1.411743 -7.15845,-7.117474 C 109.75715,65.141943 101.69134,57.12142 95.770272,51.233171 89.849204,45.344922 83.920102,39.472636 82.59449,38.183651 l -2.410204,-2.343611 -15.259971,0.036 -15.259971,0.036 -0.993923,2.651225 -0.993922,2.651224 0.708078,1.30174 c 0.389442,0.715958 0.708076,1.348636 0.708076,1.405953 0,0.05732 -1.324886,0.104212 -2.944189,0.104212 h -2.94419 l -0.995703,2.504261 -0.995704,2.504262 1.363094,2.356317 1.363093,2.356316 -2.966669,0.04372 -2.96667,0.04371 0.01334,11.766285 0.01334,11.766284 18.856088,18.07653 c 10.370848,9.942091 19.5658,18.744921 20.433228,19.561831 l 1.577139,1.4853 -20.326054,-0.0135 c -16.090116,-0.0107 -20.560454,-0.0576 -21.450816,-0.22512 z"
     id="path19" />
</svg>
